HIERARCHY
ROOT Hips
{
 OFFSET 0.000000 0.000000 0.000000
 CHANNELS 6 Xposition Yposition Zposition Yrotation Xrotation Zrotation
 JOINT Chest
 {
  OFFSET 0.000000 9.585900 0.002600
  CHANNELS 3 Yrotation Xrotation Zrotation
  JOINT Chest2
  {
   OFFSET 0.000000 9.601200 -0.005300
   CHANNELS 3 Yrotation Xrotation Zrotation
   JOINT Chest3
   {
    OFFSET 0.000000 9.561800 0.000000
    CHANNELS 3 Yrotation Xrotation Zrotation
    JOINT Chest4
    {
     OFFSET 0.000000 9.552100 0.000000
     CHANNELS 3 Yrotation Xrotation Zrotation
     JOINT Neck
     {
      OFFSET 0.000000 14.453000 0.000000
      CHANNELS 3 Yrotation Xrotation Zrotation
      JOINT Head
      {
       OFFSET 0.000000 8.936500 -0.011300
       CHANNELS 3 Yrotation Xrotation Zrotation
       End Site
       {
        OFFSET 0.000000 17.073600 -0.006000
       }
      }
     }
     JOINT RightCollar
     {
      OFFSET -2.921100 9.558500 0.000000
      CHANNELS 3 Yrotation Xrotation Zrotation
      JOINT RightShoulder
      {
       OFFSET -13.519700 0.000000 0.000000
       CHANNELS 3 Yrotation Xrotation Zrotation
       JOINT RightElbow
       {
        OFFSET 0.000000 -29.696600 0.000000
        CHANNELS 3 Yrotation Xrotation Zrotation
        JOINT RightWrist
        {
         OFFSET 0.000000 -24.004700 0.000000
         CHANNELS 3 Yrotation Xrotation Zrotation
         End Site
         {
          OFFSET 0.000000 -17.728500 0.000000
         }
        }
       }
      }
     }
     JOINT LeftCollar
     {
      OFFSET 2.921100 9.558500 0.000000
      CHANNELS 3 Yrotation Xrotation Zrotation
      JOINT LeftShoulder
      {
       OFFSET 13.519700 0.000000 0.000000
       CHANNELS 3 Yrotation Xrotation Zrotation
       JOINT LeftElbow
       {
        OFFSET 0.000000 -29.696600 0.000000
        CHANNELS 3 Yrotation Xrotation Zrotation
        JOINT LeftWrist
        {
         OFFSET 0.000000 -24.004700 0.000000
         CHANNELS 3 Yrotation Xrotation Zrotation
         End Site
         {
          OFFSET 0.000000 -17.728500 0.000000
         }
        }
       }
      }
     }
    }
   }
  }
 }
 JOINT RightHip
 {
  OFFSET -7.771700 -0.012900 -0.001300
  CHANNELS 3 Yrotation Xrotation Zrotation
  JOINT RightKnee
  {
   OFFSET 0.000000 -40.869800 0.001200
   CHANNELS 3 Yrotation Xrotation Zrotation
   JOINT RightAnkle
   {
    OFFSET 0.000000 -39.717900 0.002100
    CHANNELS 3 Yrotation Xrotation Zrotation
    JOINT RightToe
    {
     OFFSET 0.000000 -4.965400 11.033500
     CHANNELS 3 Yrotation Xrotation Zrotation
     End Site
     {
      OFFSET 0.000000 -1.423100 5.872300
     }
    }
   }
  }
 }
 JOINT LeftHip
 {
  OFFSET 7.771700 -0.012900 -0.001300
  CHANNELS 3 Yrotation Xrotation Zrotation
  JOINT LeftKnee
  {
   OFFSET 0.000000 -40.869800 0.001200
   CHANNELS 3 Yrotation Xrotation Zrotation
   JOINT LeftAnkle
   {
    OFFSET 0.000000 -39.717900 0.002100
    CHANNELS 3 Yrotation Xrotation Zrotation
    JOINT LeftToe
    {
     OFFSET 0.000000 -4.965400 11.033500
     CHANNELS 3 Yrotation Xrotation Zrotation
     End Site
     {
      OFFSET 0.000000 -1.423100 5.872300
     }
    }
   }
  }
 }
}
MOTION
Frames: 8
Frame Time: 0.008333
0.000000 85.388000 0.000000 0.000000 -5.767877 0.000000 0.000000 11.653817 0.000000 0.000000 -5.885947 0.000000 0.000000 -0.000000 0.000000 0.000000 -0.000000 0.000000 0.000000 12.528835 0.000000 0.000000 0.711642 0.000000 0.000000 -0.000000 0.000000 0.000000 0.000000 -90.000000 0.000000 -2.309062 0.000000 0.000000 2.309062 0.000000 0.000000 -0.000000 0.000000 0.000000 -0.000000 90.000000 0.000000 -2.309062 0.000000 0.000000 2.309062 0.000000 0.000000 8.520406 0.000000 0.000000 1.905762 0.000000 -0.000000 -4.658285 0.000000 0.000000 -0.000000 0.000000 0.000000 8.520406 0.000000 0.000000 1.905762 0.000000 -0.000000 -4.658285 0.000000 0.000000 -0.000000 0.000000
-221.029399 57.881599 25.196201 174.379905 -49.047359 -3.777890 5.139155 22.210483 3.699271 2.739076 12.771741 1.909884 3.381105 15.903823 2.418303 2.683428 12.751628 1.869694 -1.868016 13.823508 3.250693 -4.786999 -9.934983 6.854635 1.724744 4.119401 2.388663 -2.095027 -14.626361 -11.196344 -60.142751 -35.291694 117.762368 -1.212255 9.466814 12.956940 -11.321252 2.438834 -1.889574 1.887842 -18.093701 11.407771 54.239347 -37.316068 -111.020166 -7.333247 8.352582 -36.730493 6.871291 -22.836010 0.021659 -42.179605 72.395688 -45.007293 3.704892 -13.384553 11.817115 0.022301 -0.101939 0.002862 -7.669018 -21.746138 9.329169 59.404217 77.770021 58.904424 5.827942 -14.949332 -19.289278 0.039845 0.041529 0.019996
-221.025183 57.880910 25.190098 174.366543 -49.059760 -3.797199 5.127942 22.207978 3.696945 2.718819 12.764015 1.893086 3.368841 15.899357 2.408165 2.674783 12.748092 1.861676 -2.009807 13.794323 3.309860 -5.078841 -9.973685 7.023017 1.684572 4.145625 2.356060 -2.394287 -14.482129 -11.033174 -59.776441 -35.180412 117.385583 -1.687747 9.072632 12.527556 -11.276213 2.456258 -1.872581 2.125277 -18.104065 11.326302 53.897040 -37.083975 -110.576146 -6.918205 8.037629 -36.363125 6.864404 -22.828312 0.044159 -42.193121 72.402619 -45.008352 3.722703 -13.385261 11.818427 0.016256 -0.108811 -0.010186 -7.643610 -21.740026 9.361323 59.446530 77.788391 58.968252 5.820364 -14.955800 -19.286533 0.037509 0.033416 0.018699
-221.017654 57.880305 25.182806 174.333729 -49.078496 -3.818813 5.159018 22.217221 3.737052 2.615959 12.726217 1.817748 3.421691 15.914940 2.426689 2.666988 12.744096 1.852750 -2.143291 13.770925 3.367837 -5.354336 -10.001845 7.185669 1.641135 4.182309 2.321858 -2.750305 -14.365259 -10.842196 -59.441520 -35.075860 116.968683 -2.175693 8.650081 12.116355 -11.227768 2.478053 -1.849724 2.421111 -18.102568 11.210620 53.637439 -36.936617 -110.118357 -6.458123 7.693872 -35.912260 6.865492 -22.817083 0.091839 -42.234535 72.400883 -45.032225 3.735809 -13.386336 11.809343 0.033142 -0.111715 -0.011725 -7.611161 -21.724600 9.409932 59.448192 77.813365 58.998568 5.823624 -14.957680 -19.287083 0.033798 0.024285 0.015230
-221.013796 57.877695 25.175012 174.315761 -49.087901 -3.825917 5.132050 22.207840 3.708682 2.637824 12.732367 1.830515 3.377809 15.897654 2.393756 2.659628 12.739202 1.842263 -2.268906 13.754230 3.425864 -5.614627 -10.017745 7.344896 1.596761 4.229565 2.289233 -3.156089 -14.278398 -10.626587 -59.116724 -34.942534 116.507486 -2.678634 8.205339 11.707549 -11.225862 2.466804 -1.772834 2.835277 -18.052348 11.017205 53.461616 -36.868108 -109.647556 -5.948128 7.330220 -35.375336 6.860186 -22.814225 0.102019 -42.244695 72.411083 -45.031213 3.745639 -13.385313 11.803814 0.031659 -0.114441 -0.013894 -7.580717 -21.721035 9.432736 59.503406 77.852527 59.080093 5.827307 -14.983426 -19.289459 0.038384 0.020478 0.014306
-221.009799 57.874254 25.166651 174.279077 -49.097116 -3.814844 5.078927 22.184530 3.634565 2.653409 12.734622 1.833187 3.384131 15.896112 2.387143 2.651825 12.733089 1.830169 -2.387375 13.744981 3.484634 -5.861128 -10.019920 7.502119 1.549983 4.290868 2.256374 -3.602060 -14.223983 -10.393338 -58.791985 -34.756824 116.005237 -3.199404 7.741279 11.274483 -11.172666 2.481704 -1.716859 3.235141 -18.016595 10.831658 53.361950 -36.857517 -109.168859 -5.369666 6.952656 -34.743854 6.843558 -22.813551 0.099937 -42.166307 72.437613 -44.969522 3.768437 -13.382357 11.810504 0.011497 -0.123133 -0.032751 -7.538554 -21.717010 9.452146 59.534037 77.876481 59.138272 5.820547 -14.996427 -19.293018 0.045592 0.015111 0.013713
-220.998989 57.871578 25.158017 174.230035 -49.114448 -3.830065 5.085762 22.179571 3.638333 2.631298 12.720777 1.809350 3.389353 15.892259 2.381204 2.642396 12.725563 1.817333 -2.500438 13.743823 3.543626 -6.096811 -10.007018 7.657033 1.496852 4.368098 2.218323 -4.079820 -14.199002 -10.147348 -58.461830 -34.516364 115.460430 -3.736969 7.256950 10.798562 -11.120429 2.498295 -1.652907 3.675797 -17.973678 10.622484 53.316759 -36.876381 -108.679986 -4.701339 6.554203 -34.014274 6.842872 -22.807029 0.151841 -42.197705 72.441919 -44.984696 3.776655 -13.385744 11.798992 0.007529 -0.121140 -0.037143 -7.502683 -21.698959 9.507443 59.569333 77.896568 59.205643 5.824471 -15.008435 -19.302368 0.047576 0.012711 0.010930
-220.991206 57.868198 25.148849 174.214432 -49.128863 -3.847702 5.097883 22.186589 3.658851 2.587834 12.696995 1.773081 3.375656 15.881340 2.364481 2.631948 12.716750 1.804394 -2.609992 13.751199 3.603735 -6.325497 -9.978179 7.811941 1.433779 4.458976 2.174989 -4.584341 -14.198002 -9.890267 -58.127983 -34.235566 114.868185 -4.295836 6.751738 10.270259 -11.054769 2.535787 -1.602569 4.126378 -17.944189 10.414849 53.306612 -36.896196 -108.178169 -3.921905 6.121272 -33.191843 6.829525 -22.800106 0.176926 -42.300755 72.438837 -45.061513 3.797118 -13.396998 11.779295 0.011180 -0.114322 -0.031436 -7.486120 -21.685097 9.535468 59.625625 77.911274 59.288687 5.827585 -15.023695 -19.312408 0.050977 0.014036 0.009538
